<svg width="41" height="21" viewBox="0 0 41 21" fill="none" xmlns="http://www.w3.org/2000/svg">
<g clip-path="url(#clip0_18_3)">
<path d="M17.662 12.9461C19.0978 14.3841 21.3939 14.4151 22.7904 13.0164C24.1874 11.6173 26.1691 4.4257 26.1691 4.4257C26.1691 4.4257 18.9885 6.41037 17.5916 7.80947C16.1951 9.20821 16.2267 11.5086 17.662 12.9461Z" fill="#4581F5"/>
<circle cx="3.01008" cy="3.01008" r="3.01008" transform="matrix(-0.706556 -0.707657 0.706556 -0.707657 20.2613 14.6028)" fill="white"/>
</g>
<g clip-path="url(#clip1_18_3)">
<path d="M15.3433 7.61177C13.9075 6.17375 11.5524 6.20186 10.0831 7.67348C8.61334 9.14548 6.39286 16.5762 6.39286 16.5762C6.39286 16.5762 13.8122 14.3524 15.2819 12.8804C16.7512 11.4088 16.7785 9.04923 15.3433 7.61177Z" fill="#DB0000"/>
<ellipse cx="3.01008" cy="3.16693" rx="3.01008" ry="3.16693" transform="matrix(0.706556 0.707657 -0.706556 0.707657 12.7194 5.97978)" fill="white"/>
</g>
<path d="M3.759 13.9707C3.21716 13.9707 2.71596 13.8825 2.2554 13.7061C1.80161 13.523 1.40539 13.2686 1.06675 12.943C0.734869 12.6106 0.47411 12.2239 0.284466 11.783C0.094823 11.3421 1.2868e-06 10.857 1.2868e-06 10.3279C1.2868e-06 9.79881 0.094823 9.31378 0.284466 8.87285C0.47411 8.43192 0.738256 8.04866 1.0769 7.72305C1.41555 7.39065 1.81177 7.13627 2.26556 6.9599C2.72612 6.77674 3.22732 6.68517 3.76916 6.68517C4.31777 6.68517 4.82236 6.78014 5.28292 6.97008C5.75026 7.15323 6.14648 7.42796 6.47158 7.79427L5.81121 8.43532C5.5403 8.15041 5.23551 7.94012 4.89686 7.80445C4.55821 7.66199 4.19586 7.59077 3.8098 7.59077C3.41019 7.59077 3.03768 7.6586 2.69226 7.79427C2.35361 7.92994 2.05899 8.11988 1.80839 8.36409C1.55779 8.6083 1.36137 8.89999 1.21914 9.23916C1.08368 9.57156 1.01595 9.93448 1.01595 10.3279C1.01595 10.7214 1.08368 11.0877 1.21914 11.4269C1.36137 11.7592 1.55779 12.0475 1.80839 12.2918C2.05899 12.536 2.35361 12.7259 2.69226 12.8616C3.03768 12.9972 3.41019 13.0651 3.8098 13.0651C4.19586 13.0651 4.55821 12.9972 4.89686 12.8616C5.23551 12.7191 5.5403 12.502 5.81121 12.2103L6.47158 12.8514C6.14648 13.2177 5.75026 13.4958 5.28292 13.6858C4.82236 13.8757 4.31439 13.9707 3.759 13.9707Z" fill="black"/>
<path d="M26.1562 13.9096V8.51672H27.0909V9.98196L26.9995 9.61565C27.1485 9.24256 27.3991 8.95765 27.7513 8.76093C28.1035 8.5642 28.5369 8.46584 29.0517 8.46584V9.41214C29.011 9.40536 28.9704 9.40197 28.9298 9.40197C28.8959 9.40197 28.862 9.40197 28.8282 9.40197C28.3066 9.40197 27.8935 9.55799 27.5887 9.87003C27.2839 10.1821 27.1315 10.6332 27.1315 11.2233V13.9096H26.1562Z" fill="black"/>
<path d="M32.4291 13.9707C31.9075 13.9707 31.4402 13.8554 31.027 13.6247C30.6207 13.3941 30.299 13.0719 30.0619 12.6581C29.8248 12.2443 29.7063 11.7626 29.7063 11.2132C29.7063 10.6637 29.8248 10.1855 30.0619 9.77845C30.299 9.36466 30.6207 9.04244 31.027 8.8118C31.4402 8.58116 31.9075 8.46584 32.4291 8.46584C32.8828 8.46584 33.2926 8.5676 33.6584 8.7711C34.0241 8.97461 34.3153 9.27987 34.5321 9.68688C34.7556 10.0939 34.8673 10.6027 34.8673 11.2132C34.8673 11.8237 34.759 12.3325 34.5422 12.7395C34.3323 13.1465 34.0444 13.4551 33.6787 13.6654C33.3129 13.8689 32.8964 13.9707 32.4291 13.9707ZM32.5103 13.1159C32.849 13.1159 33.1538 13.0379 33.4247 12.8819C33.7024 12.7259 33.9191 12.5054 34.0749 12.2205C34.2374 11.9288 34.3187 11.593 34.3187 11.2132C34.3187 10.8265 34.2374 10.4941 34.0749 10.216C33.9191 9.93108 33.7024 9.71062 33.4247 9.5546C33.1538 9.39858 32.849 9.32057 32.5103 9.32057C32.1649 9.32057 31.8567 9.39858 31.5858 9.5546C31.3149 9.71062 31.0982 9.93108 30.9356 10.216C30.7731 10.4941 30.6918 10.8265 30.6918 11.2132C30.6918 11.593 30.7731 11.9288 30.9356 12.2205C31.0982 12.5054 31.3149 12.7259 31.5858 12.8819C31.8567 13.0379 32.1649 13.1159 32.5103 13.1159ZM34.3492 13.9096V12.4546L34.4102 11.203L34.3086 9.95143V6.35956H35.2839V13.9096H34.3492Z" fill="black"/>
<path d="M38.6735 13.9707C38.2265 13.9707 37.7998 13.9096 37.3934 13.7875C36.9938 13.6654 36.6788 13.5162 36.4486 13.3398L36.8549 12.5665C37.0852 12.7225 37.3697 12.8548 37.7083 12.9633C38.047 13.0719 38.3924 13.1261 38.7446 13.1261C39.1984 13.1261 39.5235 13.0617 39.7199 12.9328C39.9231 12.8039 40.0247 12.6241 40.0247 12.3935C40.0247 12.2239 39.9637 12.0916 39.8418 11.9967C39.7199 11.9017 39.5573 11.8305 39.3542 11.783C39.1577 11.7355 38.9376 11.6948 38.6938 11.6609C38.45 11.6202 38.2061 11.5727 37.9623 11.5184C37.7185 11.4574 37.495 11.376 37.2918 11.2742C37.0886 11.1657 36.926 11.0198 36.8041 10.8367C36.6822 10.6467 36.6213 10.3958 36.6213 10.0837C36.6213 9.7581 36.7127 9.4732 36.8956 9.22899C37.0784 8.98478 37.3358 8.79824 37.6677 8.66935C38.0063 8.53368 38.4059 8.46584 38.8665 8.46584C39.2187 8.46584 39.5743 8.50994 39.9332 8.59812C40.299 8.67952 40.597 8.79824 40.8273 8.95426L40.4107 9.72758C40.1669 9.56477 39.9129 9.45285 39.6488 9.39179C39.3846 9.33074 39.1205 9.30022 38.8563 9.30022C38.4296 9.30022 38.1113 9.37144 37.9014 9.5139C37.6914 9.64957 37.5864 9.82594 37.5864 10.043C37.5864 10.2262 37.6474 10.3686 37.7693 10.4704C37.898 10.5653 38.0605 10.64 38.2569 10.6942C38.4601 10.7485 38.6836 10.796 38.9275 10.8367C39.1713 10.8706 39.4151 10.9181 39.6589 10.9791C39.9028 11.0334 40.1229 11.1114 40.3193 11.2132C40.5225 11.3149 40.6851 11.4574 40.807 11.6405C40.9357 11.8237 41 12.0679 41 12.3732C41 12.6988 40.9052 12.9803 40.7155 13.2177C40.5259 13.4551 40.2583 13.6417 39.9129 13.7773C39.5675 13.9062 39.1544 13.9707 38.6735 13.9707Z" fill="black"/>
<defs>
<clipPath id="clip0_18_3">
<rect width="12.7092" height="12.7092" fill="white" transform="matrix(-0.706556 -0.707657 0.706556 -0.707657 21.6791 17.9875)"/>
</clipPath>
<clipPath id="clip1_18_3">
<rect width="12.7092" height="13.3715" fill="white" transform="matrix(0.706556 0.707657 -0.706556 0.707657 11.3526 2.54382)"/>
</clipPath>
</defs>
</svg>
