<svg width="35" height="25" viewBox="0 0 35 25" fill="none" xmlns="http://www.w3.org/2000/svg">
<g clip-path="url(#clip0_18_11)">
<path d="M15.7596 8.72272C13.8013 6.73681 10.6068 6.79271 8.62451 8.84608C6.64171 10.9 3.6845 21.2308 3.6845 21.2308C3.6845 21.2308 13.7324 18.0908 15.7152 16.0369C17.6974 13.9835 17.7171 10.7079 15.7596 8.72272Z" fill="#DB0000"/>
<ellipse cx="4.131" cy="4.3461" rx="4.131" ry="4.3461" transform="matrix(0.702183 0.712099 -0.694594 0.719503 12.1881 6.47607)" fill="white"/>
</g>
<g clip-path="url(#clip1_18_11)">
<path d="M19.5395 15.703C21.4739 17.6647 24.5509 17.691 26.4121 15.7631C28.2738 13.8347 30.8768 3.95913 30.8768 3.95913C30.8768 3.95913 21.2694 6.73145 19.4078 8.65987C17.5466 10.5878 17.6059 13.742 19.5395 15.703Z" fill="#4581F5"/>
<ellipse cx="4.08071" cy="4.08055" rx="4.08071" ry="4.08055" transform="matrix(-0.702183 -0.712099 0.694594 -0.719503 23.0347 17.9563)" fill="white"/>
</g>
<defs>
<clipPath id="clip0_18_11">
<rect width="10.7574" height="17.679" fill="white" transform="matrix(0.707362 0.706851 -0.699829 0.71431 12.3723 4.76788)"/>
</clipPath>
<clipPath id="clip1_18_11">
<rect width="10.7486" height="17.4041" fill="white" transform="matrix(-0.707362 -0.706851 0.699829 -0.71431 22.8201 20.0296)"/>
</clipPath>
</defs>
</svg>
